<svg xmlns="http://www.w3.org/2000/svg" viewBox="0 0 320 200" width="320" height="200">
  <!-- Sky through canopy -->
  <rect width="320" height="200" fill="#b5d8a8"/>
  <!-- Ground -->
  <rect y="150" width="320" height="50" fill="#5a3e1b"/>
  <!-- Path -->
  <polygon points="130,200 190,200 175,145 145,145" fill="#8b6534"/>
  <!-- Tree trunks -->
  <rect x="20" y="60" width="18" height="140" fill="#4a2e0a"/>
  <rect x="70" y="80" width="14" height="120" fill="#5a3810"/>
  <rect x="240" y="55" width="20" height="145" fill="#4a2e0a"/>
  <rect x="285" y="75" width="15" height="125" fill="#5a3810"/>
  <rect x="140" y="70" width="12" height="80" fill="#4a2e0a"/>
  <!-- Foliage -->
  <ellipse cx="29" cy="55" rx="38" ry="45" fill="#2d6a2d"/>
  <ellipse cx="77" cy="70" rx="32" ry="40" fill="#3a7a3a"/>
  <ellipse cx="250" cy="48" rx="40" ry="46" fill="#2d6a2d"/>
  <ellipse cx="292" cy="65" rx="33" ry="42" fill="#357535"/>
  <ellipse cx="146" cy="60" rx="28" ry="38" fill="#3a7a3a"/>
  <!-- Sunbeam -->
  <polygon points="155,0 165,0 185,145 135,145" fill="#fff" opacity="0.12"/>
</svg>
